<svg width="24" height="35" viewBox="0 0 24 35" fill="none" xmlns="http://www.w3.org/2000/svg">
<path d="M11.9 16.625C10.7728 16.625 9.69183 16.1641 8.8948 15.3436C8.09777 14.5231 7.65 13.4103 7.65 12.25C7.65 11.0897 8.09777 9.97688 8.8948 9.15641C9.69183 8.33594 10.7728 7.875 11.9 7.875C13.0272 7.875 14.1082 8.33594 14.9052 9.15641C15.7022 9.97688 16.15 11.0897 16.15 12.25C16.15 12.8245 16.0401 13.3934 15.8265 13.9242C15.6129 14.455 15.2999 14.9373 14.9052 15.3436C14.5106 15.7498 14.042 16.0721 13.5264 16.292C13.0108 16.5118 12.4581 16.625 11.9 16.625ZM11.9 0C8.74392 0 5.71711 1.29062 3.48543 3.58794C1.25375 5.88526 0 9.0011 0 12.25C0 21.4375 11.9 35 11.9 35C11.9 35 23.8 21.4375 23.8 12.25C23.8 9.0011 22.5463 5.88526 20.3146 3.58794C18.0829 1.29062 15.0561 0 11.9 0Z" fill="#6E93F0"/>
</svg>
