<svg width="23" height="22" viewBox="0 0 23 22" fill="none" xmlns="http://www.w3.org/2000/svg">
<path d="M4.62556 9.52111C6.46556 12.98 9.43 15.8033 13.0461 17.5756L15.8572 14.8867C16.2022 14.5567 16.7133 14.4467 17.1606 14.5933C18.5917 15.0456 20.1378 15.29 21.7222 15.29C22.425 15.29 23 15.84 23 16.5122V20.7778C23 21.45 22.425 22 21.7222 22C9.72389 22 0 12.6989 0 1.22222C0 0.55 0.575 0 1.27778 0H5.75C6.45278 0 7.02778 0.55 7.02778 1.22222C7.02778 2.75 7.28333 4.21667 7.75611 5.58556C7.89667 6.01333 7.79444 6.49 7.43667 6.83222L4.62556 9.52111Z" fill="#6E93F0"/>
</svg>
