<svg width="74" height="74" viewBox="0 0 74 74" fill="none" xmlns="http://www.w3.org/2000/svg">
<g filter="url(#filter0_f_35_193)">
<circle cx="37" cy="37" r="23.5" stroke="#305BC9" stroke-width="3"/>
</g>
<circle cx="37" cy="37" r="23.5" stroke="#305BC9" stroke-width="3"/>
<path d="M27.5935 39.199H31.3345C31.3345 41.0163 31.7405 42.2827 32.5525 42.998C33.3645 43.694 34.7372 44.042 36.6705 44.042C38.2945 44.042 39.4642 43.7907 40.1795 43.288C40.9142 42.7853 41.2815 42.0023 41.2815 40.939C41.2815 38.9863 40.1892 38.01 38.0045 38.01H35.1625V34.762H38.0045C39.9958 34.762 40.9915 33.921 40.9915 32.239C40.9915 31.3303 40.6628 30.6537 40.0055 30.209C39.3482 29.745 38.2365 29.513 36.6705 29.513C34.7952 29.513 33.4805 29.8127 32.7265 30.412C31.9918 31.0113 31.6245 32.007 31.6245 33.399H27.8835C27.8835 30.9823 28.6568 29.194 30.2035 28.034C31.7695 26.8547 33.9252 26.265 36.6705 26.265C39.1452 26.265 41.1075 26.7483 42.5575 27.715C44.0075 28.6817 44.7325 30.0253 44.7325 31.746C44.7325 33.0607 44.3458 34.0177 43.5725 34.617C42.8185 35.2163 41.7068 35.6417 40.2375 35.893V36.85C40.9915 36.9853 41.6102 37.1303 42.0935 37.285C42.5962 37.4397 43.0892 37.6813 43.5725 38.01C44.0752 38.3193 44.4425 38.7543 44.6745 39.315C44.9065 39.8757 45.0225 40.5717 45.0225 41.403C45.0225 43.2977 44.2588 44.7573 42.7315 45.782C41.2235 46.7873 39.2032 47.29 36.6705 47.29C33.8672 47.29 31.6535 46.652 30.0295 45.376C28.4055 44.0807 27.5935 42.0217 27.5935 39.199Z" fill="white"/>
<defs>
<filter id="filter0_f_35_193" x="0" y="0" width="74" height="74" filterUnits="userSpaceOnUse" color-interpolation-filters="sRGB">
<feFlood flood-opacity="0" result="BackgroundImageFix"/>
<feBlend mode="normal" in="SourceGraphic" in2="BackgroundImageFix" result="shape"/>
<feGaussianBlur stdDeviation="6" result="effect1_foregroundBlur_35_193"/>
</filter>
</defs>
</svg>
