<svg width="74" height="74" viewBox="0 0 74 74" fill="none" xmlns="http://www.w3.org/2000/svg">
<g filter="url(#filter0_f_35_188)">
<circle cx="37" cy="37" r="23.5" stroke="#305BC9" stroke-width="3"/>
</g>
<circle cx="37" cy="37" r="23.5" stroke="#305BC9" stroke-width="3"/>
<path d="M28.3787 36.125C28.3787 32.7803 29.2294 30.3057 30.9307 28.701C32.6514 27.077 34.9037 26.265 37.6877 26.265C40.0657 26.265 41.9701 26.8643 43.4007 28.063C44.8314 29.2617 45.5467 30.9533 45.5467 33.138C45.5467 34.0853 45.4017 34.965 45.1117 35.777C44.8411 36.5697 44.4737 37.2753 44.0097 37.894C43.5457 38.4933 42.9271 39.054 42.1537 39.576C41.3804 40.0787 40.5781 40.5137 39.7467 40.881C38.9347 41.229 37.9391 41.5673 36.7597 41.896C35.5997 42.2247 34.4784 42.505 33.3957 42.737C32.3324 42.969 31.0854 43.2107 29.6547 43.462V44.419L32.0617 43.752H45.5467V47H28.6687V40.475C29.0747 40.417 29.4131 40.3687 29.6837 40.33C29.9544 40.2913 30.4474 40.2043 31.1627 40.069C31.8781 39.9337 32.4967 39.808 33.0187 39.692C33.5407 39.5567 34.1981 39.373 34.9907 39.141C35.7834 38.8897 36.4601 38.6383 37.0207 38.387C37.6007 38.1163 38.2097 37.7973 38.8477 37.43C39.4857 37.0433 40.0077 36.6373 40.4137 36.212C40.8197 35.7867 41.1484 35.3033 41.3997 34.762C41.6704 34.2013 41.8057 33.6117 41.8057 32.993C41.8057 31.9297 41.4674 31.0887 40.7907 30.47C40.1334 29.832 39.1184 29.513 37.7457 29.513C35.8897 29.513 34.4881 30.035 33.5407 31.079C32.5934 32.123 32.1197 33.805 32.1197 36.125H28.3787Z" fill="white"/>
<defs>
<filter id="filter0_f_35_188" x="0" y="0" width="74" height="74" filterUnits="userSpaceOnUse" color-interpolation-filters="sRGB">
<feFlood flood-opacity="0" result="BackgroundImageFix"/>
<feBlend mode="normal" in="SourceGraphic" in2="BackgroundImageFix" result="shape"/>
<feGaussianBlur stdDeviation="6" result="effect1_foregroundBlur_35_188"/>
</filter>
</defs>
</svg>
